:FULLY-SPECIFIED
:FORCE-ALL-JOINTS-BE-3DOF
:DEGREES
1937
root 5.46414 13.7615 28.1946 -22.4567 67.3876 -26.5209
lfemur -61.8269 12.6127 -4.93951
ltibia 68.8881 0 0
lfoot -4.08056 -1.27714 -0.0452592
ltoes -33.0463 0 0
rfemur -2.46571 -5.73361 16.6736
rtibia 61.4034 0 0
rfoot -24.5619 -29.1525 0.0257446
rtoes -27.0201 0 0
lowerback 12.6388 4.98828 4.19123
upperback -0.892899 7.62646 3.43603
thorax -7.97033 3.63157 -0.143324
lowerneck -0.229388 15.1314 7.25164
upperneck 5.69156 20.6324 -7.14832
head 3.58061 10.2782 -2.6535
lclavicle 8.38044e-16 -1.62901e-14 1.55227e-30
lhumerus 63.2321 -24.8957 58.5236
lradius 34.5376 0 0
lwrist -0.176555 0 0
lhand -13.3599 33.9337 0.0202152
lfingers 7.12502 0 0
lthumb 12.747 63.5522 0.0210999
rclavicle 8.38044e-16 -1.62901e-14 1.55227e-30
rhumerus -44.0674 21.3485 -77.1903
rradius 91.7763 0 0
rwrist -35.3101 0 0
rhand -14.0462 -43.671 0.0145663
rfingers 7.12502 0 0
rthumb 12.0836 -73.2891 0.017514
1938
root 5.3246 13.7751 28.2275 -22.6138 67.5228 -26.6856
lfemur -61.838 12.6191 -5.03635
ltibia 68.8608 0 0
lfoot -4.10507 -1.23767 -0.0471998
ltoes -33.0357 0 0
rfemur -2.51232 -5.73584 16.7174
rtibia 61.4028 0 0
rfoot -24.5903 -29.1731 0.0270701
rtoes -27.0209 0 0
lowerback 12.6483 4.97256 4.20199
upperback -0.890278 7.60864 3.44156
thorax -7.97287 3.62277 -0.140224
lowerneck -0.234796 15.1245 7.24607
upperneck 5.68041 20.6225 -7.15364
head 3.57697 10.2731 -2.65504
lclavicle 9.15559e-16 -1.64589e-14 1.60808e-30
lhumerus 63.2732 -24.9459 58.4497
lradius 34.7914 0 0
lwrist -0.178494 0 0
lhand -13.3903 33.9548 0.0187439
lfingers 7.12502 0 0
lthumb 12.7176 63.5744 0.0196042
rclavicle 9.15559e-16 -1.64589e-14 1.60808e-30
rhumerus -44.066 21.4297 -77.2061
rradius 91.8331 0 0
rwrist -35.3937 0 0
rhand -14.0161 -43.6603 0.0152674
rfingers 7.12502 0 0
rthumb 12.1126 -73.2761 0.018362
1939
root 5.18506 13.7887 28.2605 -22.7693 67.6455 -26.8496
lfemur -61.8458 12.6386 -5.12763
ltibia 68.8389 0 0
lfoot -4.13503 -1.20012 -0.0489773
ltoes -33.0215 0 0
rfemur -2.55171 -5.73755 16.7621
rtibia 61.3881 0 0
rfoot -24.6211 -29.1941 0.0283716
rtoes -27.025 0 0
lowerback 12.6583 4.95714 4.21619
upperback -0.887404 7.59193 3.4487
thorax -7.9752 3.61442 -0.137529
lowerneck -0.241157 15.1177 7.23983
upperneck 5.67042 20.6127 -7.15794
head 3.57368 10.268 -2.65602
lclavicle 8.94335e-16 -1.66322e-14 1.65878e-30
lhumerus 63.299 -24.9672 58.4197
lradius 35.0251 0 0
lwrist -0.252889 0 0
lhand -13.4359 33.9803 0.0166187
lfingers 7.12502 0 0
lthumb 12.6737 63.6012 0.0174354
rclavicle 8.94335e-16 -1.66322e-14 1.65878e-30
rhumerus -44.0954 21.5087 -77.2395
rradius 91.9119 0 0
rwrist -35.512 0 0
rhand -13.9866 -43.6481 0.0159403
rfingers 7.12502 0 0
rthumb 12.141 -73.2615 0.0191793
1940
root 5.04551 13.8023 28.2934 -22.932 67.7649 -27.0219
lfemur -61.8515 12.6697 -5.21939
ltibia 68.8202 0 0
lfoot -4.17097 -1.16207 -0.0507112
ltoes -33.0034 0 0
rfemur -2.58745 -5.73892 16.8099
rtibia 61.3614 0 0
rfoot -24.6555 -29.2165 0.0297198
rtoes -27.032 0 0
lowerback 12.6693 4.94112 4.2339
upperback -0.884173 7.5752 3.45751
thorax -7.97748 3.60599 -0.135014
lowerneck -0.248626 15.1106 7.23271
upperneck 5.66082 20.6026 -7.16166
head 3.57052 10.2627 -2.65661
lclavicle 7.92795e-16 -1.68183e-14 1.70851e-30
lhumerus 63.3137 -24.9664 58.4232
lradius 35.255 0 0
lwrist -0.389531 0 0
lhand -13.496 34.0107 0.0138724
lfingers 7.12502 0 0
lthumb 12.6157 63.6332 0.014628
rclavicle 7.92795e-16 -1.68183e-14 1.70851e-30
rhumerus -44.151 21.5902 -77.2887
rradius 92.0126 0 0
rwrist -35.6644 0 0
rhand -13.9561 -43.634 0.0166242
rfingers 7.12502 0 0
rthumb 12.1704 -73.245 0.0200135
1941
root 4.90597 13.8159 28.3264 -23.1115 67.89 -27.2125
lfemur -61.8562 12.7109 -5.31766
ltibia 68.8022 0 0
lfoot -4.21344 -1.12112 -0.0525177
ltoes -32.9816 0 0
rfemur -2.62308 -5.74016 16.8631
rtibia 61.3246 0 0
rfoot -24.6947 -29.2414 0.0311828
rtoes -27.0414 0 0
lowerback 12.6818 4.9236 4.25521
upperback -0.880481 7.55734 3.46806
thorax -7.97987 3.59692 -0.132451
lowerneck -0.257358 15.1029 7.22451
upperneck 5.65084 20.5914 -7.16522
head 3.56722 10.2569 -2.65697
lclavicle 6.2936e-16 -1.70258e-14 1.76136e-30
lhumerus 63.3218 -24.9504 58.4501
lradius 35.4978 0 0
lwrist -0.578048 0 0
lhand -13.5701 34.0464 0.0105419
lfingers 7.12502 0 0
lthumb 12.5441 63.6708 0.0112208
rclavicle 6.2936e-16 -1.70258e-14 1.76136e-30
rhumerus -44.2284 21.6789 -77.3524
rradius 92.1351 0 0
rwrist -35.8505 0 0
rhand -13.9228 -43.6177 0.0173573
rfingers 7.12502 0 0
rthumb 12.2024 -73.2261 0.0209105
1942
root 4.76643 13.8295 28.3593 -23.3177 68.0297 -27.4314
lfemur -61.861 12.7605 -5.42854
ltibia 68.7829 0 0
lfoot -4.26298 -1.07486 -0.0545079
ltoes -32.9559 0 0
rfemur -2.66218 -5.74142 16.9238
rtibia 61.2798 0 0
rfoot -24.7398 -29.2698 0.0328259
rtoes -27.0529 0 0
lowerback 12.6961 4.9037 4.28021
upperback -0.876225 7.53722 3.48042
thorax -7.98256 3.58669 -0.129615
lowerneck -0.267506 15.0942 7.21503
upperneck 5.63971 20.5787 -7.16905
head 3.56354 10.2503 -2.65727
lclavicle 4.22455e-16 -1.72632e-14 1.8214e-30
lhumerus 63.3277 -24.926 58.4899
lradius 35.7703 0 0
lwrist -0.808071 0 0
lhand -13.6578 34.0881 0.00666863
lfingers 7.12502 0 0
lthumb 12.4595 63.7147 0.00725717
rclavicle 4.22455e-16 -1.72632e-14 1.8214e-30
rhumerus -44.3232 21.7794 -77.4287
rradius 92.2792 0 0
rwrist -36.0699 0 0
rhand -13.885 -43.5989 0.0181762
rfingers 7.12502 0 0
rthumb 12.2388 -73.2042 0.0219144
1943
root 4.62688 13.8431 28.3923 -23.5613 68.1928 -27.6898
lfemur -61.867 12.8171 -5.55802
ltibia 68.76 0 0
lfoot -4.32012 -1.02087 -0.056786
ltoes -32.9264 0 0
rfemur -2.7083 -5.74289 16.9944
rtibia 61.2289 0 0
rfoot -24.7922 -29.3028 0.0347104
rtoes -27.066 0 0
lowerback 12.7127 4.88052 4.30899
upperback -0.871302 7.51372 3.49465
thorax -7.9857 3.57475 -0.126279
lowerneck -0.279223 15.084 7.20405
upperneck 5.62666 20.564 -7.1736
head 3.55923 10.2425 -2.65767
lclavicle 1.90501e-16 -1.75389e-14 1.89268e-30
lhumerus 63.336 -24.9003 58.5323
lradius 36.0891 0 0
lwrist -1.06923 0 0
lhand -13.7584 34.1361 0.00229893
lfingers 7.12502 0 0
lthumb 12.3624 63.7654 0.00278538
rclavicle 1.90501e-16 -1.75389e-14 1.89268e-30
rhumerus -44.431 21.8963 -77.5162
rradius 92.4449 0 0
rwrist -36.3219 0 0
rhand -13.841 -43.577 0.0191151
rfingers 7.12502 0 0
rthumb 12.2812 -73.1789 0.0230668
1944
root 4.48734 13.8567 28.4252 -23.8538 68.3884 -27.9993
lfemur -61.8753 12.879 -5.71217
ltibia 68.7312 0 0
lfoot -4.38541 -0.95675 -0.0594479
ltoes -32.893 0 0
rfemur -2.76501 -5.74469 17.077
rtibia 61.174 0 0
rfoot -24.8528 -29.3415 0.0368929
rtoes -27.0802 0 0
lowerback 12.732 4.85315 4.34161
upperback -0.865612 7.48571 3.51082
thorax -7.98947 3.56056 -0.122218
lowerneck -0.292665 15.072 7.19139
upperneck 5.61093 20.5466 -7.1793
head 3.55403 10.2335 -2.65833
lclavicle -4.80786e-17 -1.78615e-14 1.9792e-30
lhumerus 63.3511 -24.8801 58.567
lradius 36.4709 0 0
lwrist -1.35117 0 0
lhand -13.8715 34.1911 -0.00251554
lfingers 7.12502 0 0
lthumb 12.2532 63.8233 -0.00214092
rclavicle -4.80786e-17 -1.78615e-14 1.9792e-30
rhumerus -44.5474 22.0343 -77.6134
rradius 92.6321 0 0
rwrist -36.6063 0 0
rhand -13.789 -43.5519 0.0202057
rfingers 7.12502 0 0
rthumb 12.3313 -73.1496 0.0244062
1945
root 4.3478 13.8703 28.4581 -24.2082 68.6248 -28.3734
lfemur -61.887 12.9446 -5.89706
ltibia 68.6943 0 0
lfoot -4.45939 -0.880081 -0.0625789
ltoes -32.8557 0 0
rfemur -2.83589 -5.74698 17.1741
rtibia 61.1169 0 0
rfoot -24.923 -29.3869 0.039424
rtoes -27.0951 0 0
lowerback 12.7544 4.82072 4.37817
upperback -0.859053 7.45207 3.529
thorax -7.99404 3.54357 -0.117204
lowerneck -0.307982 15.0577 7.17685
upperneck 5.59176 20.526 -7.18657
head 3.5477 10.2227 -2.6594
lclavicle -2.74861e-16 -1.82394e-14 2.08484e-30
lhumerus 63.3775 -24.8722 58.5836
lradius 36.9322 0 0
lwrist -1.64351 0 0
lhand -13.9965 34.2536 -0.00771765
lfingers 7.12502 0 0
lthumb 12.1326 63.8891 -0.00746256
rclavicle -2.74861e-16 -1.82394e-14 2.08484e-30
rhumerus -44.6681 22.198 -77.7186
rradius 92.8407 0 0
rwrist -36.9225 0 0
rhand -13.7273 -43.5231 0.0214762
rfingers 7.12502 0 0
rthumb 12.3906 -73.1159 0.0259671
1946
root 4.20826 13.8839 28.4911 -24.6393 68.9108 -28.8268
lfemur -61.9033 13.0123 -6.11874
ltibia 68.647 0 0
lfoot -4.5426 -0.78845 -0.0662513
ltoes -32.8144 0 0
rfemur -2.92446 -5.74984 17.2876
rtibia 61.0597 0 0
rfoot -25.0039 -29.4402 0.0423464
rtoes -27.1102 0 0
lowerback 12.7803 4.7823 4.41874
upperback -0.851527 7.41167 3.54924
thorax -7.99958 3.52325 -0.111011
lowerneck -0.325328 15.0409 7.16021
upperneck 5.56836 20.5016 -7.19585
head 3.53999 10.2101 -2.66106
lclavicle -4.71424e-16 -1.86812e-14 2.21331e-30
lhumerus 63.4195 -24.8836 58.5719
lradius 37.4897 0 0
lwrist -1.93597 0 0
lhand -14.1329 34.324 -0.0132445
lfingers 7.12502 0 0
lthumb 12.0009 63.9632 -0.0131146
rclavicle -4.71424e-16 -1.86812e-14 2.21331e-30
rhumerus -44.7887 22.3923 -77.8304
rradius 93.0707 0 0
rwrist -37.27 0 0
rhand -13.6542 -43.4903 0.0229506
rfingers 7.12502 0 0
rthumb 12.461 -73.0772 0.0277791
1947
root 4.06871 13.8975 28.524 -25.1642 69.2546 -29.3773
lfemur -61.9254 13.0806 -6.3833
ltibia 68.5872 0 0
lfoot -4.6356 -0.679429 -0.0705226
ltoes -32.7691 0 0
rfemur -3.03432 -5.75335 17.42
rtibia 61.0043 0 0
rfoot -25.0968 -29.5023 0.0456939
rtoes -27.1252 0 0
lowerback 12.8101 4.73702 4.46341
upperback -0.842936 7.3634 3.57161
thorax -8.00626 3.49906 -0.103411
lowerneck -0.344853 15.021 7.14128
upperneck 5.53999 20.473 -7.20755
head 3.53065 10.1952 -2.66346
lclavicle -6.19345e-16 -1.91954e-14 2.36798e-30
lhumerus 63.4816 -24.9212 58.5215
lradius 38.1602 0 0
lwrist -2.21808 0 0
lhand -14.2802 34.403 -0.0190273
lfingers 7.12502 0 0
lthumb 11.8588 64.0463 -0.0190262
rclavicle -6.19345e-16 -1.91954e-14 2.36798e-30
rhumerus -44.9048 22.6217 -77.9473
rradius 93.3219 0 0
rwrist -37.6484 0 0
rhand -13.5681 -43.4531 0.024648
rfingers 7.12502 0 0
rthumb 12.5439 -73.0332 0.0298658
